<svg width="28.000000" height="28.000000" viewBox="0 0 28 28" fill="none" xmlns="http://www.w3.org/2000/svg" xmlns:xlink="http://www.w3.org/1999/xlink">
	<desc>
			Created with Pixso.
	</desc>
	<defs/>
	<rect id="Format=Outline, Weight=Fill" rx="0.000000" width="27.000000" height="27.000000" transform="translate(0.500000 0.500000)" fill="#FFFFFF" fill-opacity="0"/>
	<path id="Vector" d="M18.81 13.12C18.81 14.07 18.53 15 18 15.79C17.47 16.59 16.72 17.2 15.84 17.57C14.96 17.93 13.99 18.03 13.06 17.84C12.12 17.65 11.27 17.2 10.59 16.52C9.92 15.85 9.46 14.99 9.27 14.06C9.09 13.13 9.18 12.16 9.55 11.28C9.91 10.4 10.53 9.65 11.32 9.12C12.11 8.59 13.04 8.31 14 8.31C15.27 8.31 16.49 8.82 17.4 9.72C18.3 10.62 18.81 11.84 18.81 13.12ZM25.37 14C25.37 16.24 24.7 18.44 23.45 20.31C22.2 22.19 20.43 23.64 18.35 24.5C16.27 25.37 13.98 25.59 11.78 25.15C9.57 24.71 7.54 23.63 5.95 22.04C4.36 20.45 3.28 18.42 2.84 16.21C2.4 14.01 2.62 11.72 3.49 9.64C4.35 7.56 5.8 5.79 7.68 4.54C9.55 3.29 11.75 2.62 14 2.62C17.01 2.62 19.9 3.82 22.03 5.96C24.17 8.09 25.37 10.98 25.37 14ZM23.62 14C23.62 12.7 23.36 11.42 22.85 10.23C22.34 9.03 21.6 7.96 20.66 7.06C19.73 6.16 18.62 5.46 17.41 5C16.2 4.54 14.91 4.33 13.62 4.38C8.46 4.58 4.36 8.87 4.37 14.02C4.37 16.37 5.24 18.63 6.8 20.38C7.44 19.46 8.25 18.67 9.18 18.05C9.26 18 9.36 17.98 9.45 17.98C9.55 17.99 9.64 18.03 9.71 18.09C10.9 19.12 12.42 19.68 13.99 19.68C15.56 19.68 17.08 19.12 18.27 18.09C18.34 18.03 18.44 17.99 18.53 17.98C18.63 17.98 18.72 18 18.8 18.05C19.74 18.67 20.55 19.46 21.18 20.38C22.75 18.63 23.62 16.35 23.62 14Z" fill="#FFFFFF" fill-opacity="1.000000" fill-rule="nonzero"/>
</svg>
