<svg width="28.000000" height="28.000000" viewBox="0 0 28 28" fill="none" xmlns="http://www.w3.org/2000/svg" xmlns:xlink="http://www.w3.org/1999/xlink">
	<desc>
			Created with Pixso.
	</desc>
	<defs/>
	<rect id="House" rx="0.000000" width="27.000000" height="27.000000" transform="translate(0.500000 0.500000)" fill="#FFFFFF" fill-opacity="0"/>
	<path id="Vector" d="M23.98 11.88L15.23 3.13C14.9 2.8 14.46 2.62 14 2.62C13.53 2.62 13.09 2.8 12.76 3.13L4.01 11.88C3.84 12.04 3.72 12.24 3.63 12.45C3.54 12.66 3.49 12.89 3.5 13.12L3.5 23.62C3.5 23.85 3.59 24.07 3.75 24.24C3.92 24.4 4.14 24.5 4.37 24.5L11.37 24.5C11.6 24.5 11.82 24.4 11.99 24.24C12.15 24.07 12.25 23.85 12.25 23.62L12.25 17.5L15.75 17.5L15.75 23.62C15.75 23.85 15.84 24.07 16 24.24C16.17 24.4 16.39 24.5 16.62 24.5L23.62 24.5C23.85 24.5 24.07 24.4 24.24 24.24C24.4 24.07 24.5 23.85 24.5 23.62L24.5 13.12C24.5 12.89 24.45 12.66 24.36 12.45C24.27 12.24 24.15 12.04 23.98 11.88ZM22.75 22.75L17.5 22.75L17.5 16.62C17.5 16.39 17.4 16.17 17.24 16C17.07 15.84 16.85 15.75 16.62 15.75L11.37 15.75C11.14 15.75 10.92 15.84 10.75 16C10.59 16.17 10.5 16.39 10.5 16.62L10.5 22.75L5.25 22.75L5.25 13.12L14 4.37L22.75 13.12L22.75 22.75Z" fill="#9F9F9F" fill-opacity="1.000000" fill-rule="nonzero"/>
</svg>
