<svg width="28.000000" height="28.000000" viewBox="0 0 28 28" fill="none" xmlns="http://www.w3.org/2000/svg" xmlns:xlink="http://www.w3.org/1999/xlink">
	<desc>
			Created with Pixso.
	</desc>
	<defs/>
	<rect id="Format=Outline, Weight=Regular" rx="0.000000" width="27.000000" height="27.000000" transform="translate(0.500000 0.500000)" fill="#FFFFFF" fill-opacity="0"/>
	<path id="Vector" d="M9.62 11.37C9.62 11.14 9.71 10.92 9.88 10.75C10.04 10.59 10.26 10.5 10.5 10.5L17.5 10.5C17.73 10.5 17.95 10.59 18.11 10.75C18.28 10.92 18.37 11.14 18.37 11.37C18.37 11.6 18.28 11.82 18.11 11.99C17.95 12.15 17.73 12.25 17.5 12.25L10.5 12.25C10.26 12.25 10.04 12.15 9.88 11.99C9.71 11.82 9.62 11.6 9.62 11.37ZM10.5 15.75L17.5 15.75C17.73 15.75 17.95 15.65 18.11 15.49C18.28 15.32 18.37 15.1 18.37 14.87C18.37 14.64 18.28 14.42 18.11 14.25C17.95 14.09 17.73 14 17.5 14L10.5 14C10.26 14 10.04 14.09 9.88 14.25C9.71 14.42 9.62 14.64 9.62 14.87C9.62 15.1 9.71 15.32 9.88 15.49C10.04 15.65 10.26 15.75 10.5 15.75ZM25.37 6.12L25.37 20.12C25.37 20.58 25.19 21.03 24.86 21.36C24.53 21.69 24.08 21.87 23.62 21.87L17.01 21.87L15.51 24.49C15.36 24.76 15.14 24.98 14.87 25.13C14.61 25.29 14.3 25.37 14 25.37C13.69 25.37 13.38 25.29 13.12 25.13C12.85 24.98 12.63 24.76 12.48 24.49L10.98 21.87L4.37 21.87C3.91 21.87 3.46 21.69 3.13 21.36C2.8 21.03 2.62 20.58 2.62 20.12L2.62 6.12C2.62 5.66 2.8 5.21 3.13 4.88C3.46 4.55 3.91 4.37 4.37 4.37L23.62 4.37C24.08 4.37 24.53 4.55 24.86 4.88C25.19 5.21 25.37 5.66 25.37 6.12ZM23.62 6.12L4.37 6.12L4.37 20.12L11.49 20.12C11.64 20.12 11.79 20.16 11.93 20.24C12.06 20.31 12.18 20.42 12.25 20.56L14 23.62L15.75 20.56C15.83 20.42 15.94 20.31 16.08 20.24C16.21 20.16 16.36 20.12 16.52 20.12L23.62 20.12L23.62 6.12Z" fill="#9F9F9F" fill-opacity="1.000000" fill-rule="nonzero"/>
</svg>
