<svg width="20.000000" height="20.000000" viewBox="0 0 20 20" fill="none" xmlns="http://www.w3.org/2000/svg" xmlns:xlink="http://www.w3.org/1999/xlink">
	<desc>
			Created with Pixso.
	</desc>
	<defs/>
	<rect id="Format=Stroke, Weight=Light" rx="0.000000" width="19.000000" height="19.000000" transform="translate(0.500000 0.500000)" fill="#FFFFFF" fill-opacity="0"/>
	<path id="Vector" d="M7.5 17.5L12.5 17.5" stroke="#9F9F9F" stroke-opacity="1.000000" stroke-width="1.500000" stroke-linejoin="round" stroke-linecap="round"/>
	<path id="Vector" d="M6.02 4.14C7.07 3.09 8.5 2.5 10 2.5C11.49 2.5 12.92 3.09 13.97 4.14C15.03 5.2 15.62 6.63 15.62 8.12C15.62 10.92 16.27 13.17 16.78 14.06C16.84 14.15 16.87 14.26 16.87 14.37C16.87 14.48 16.84 14.59 16.78 14.68C16.73 14.78 16.65 14.86 16.56 14.91C16.46 14.97 16.35 14.99 16.25 15L3.75 15C3.64 14.99 3.53 14.97 3.43 14.91C3.34 14.85 3.26 14.78 3.21 14.68C3.15 14.59 3.12 14.48 3.12 14.37C3.12 14.26 3.15 14.15 3.21 14.06C3.72 13.17 4.37 10.92 4.37 8.12C4.37 6.63 4.96 5.2 6.02 4.14Z" stroke="#9F9F9F" stroke-opacity="1.000000" stroke-width="1.500000" stroke-linejoin="round"/>
</svg>
