<svg width="20.000000" height="20.000000" viewBox="0 0 20 20" fill="none" xmlns="http://www.w3.org/2000/svg" xmlns:xlink="http://www.w3.org/1999/xlink">
	<desc>
			Created with Pixso.
	</desc>
	<defs/>
	<rect id="Format=Stroke, Weight=Light" rx="0.000000" width="19.000000" height="19.000000" transform="translate(0.500000 0.500000)" fill="#FFFFFF" fill-opacity="0"/>
	<path id="Vector" d="M0.79 15.62C1.42 14.66 2.27 13.87 3.28 13.33C4.29 12.78 5.41 12.49 6.56 12.49C7.7 12.49 8.83 12.78 9.84 13.33C10.84 13.87 11.7 14.66 12.32 15.62" stroke="#9F9F9F" stroke-opacity="1.000000" stroke-width="1.500000" stroke-linejoin="round" stroke-linecap="round"/>
	<path id="Vector" d="M13.43 12.5C14.58 12.49 15.7 12.78 16.71 13.33C17.72 13.87 18.57 14.66 19.2 15.62" stroke="#9F9F9F" stroke-opacity="1.000000" stroke-width="1.500000" stroke-linejoin="round" stroke-linecap="round"/>
	<path id="Vector" d="M6.56 12.5C4.31 12.5 2.5 10.68 2.5 8.43C2.5 6.19 4.31 4.37 6.56 4.37C8.8 4.37 10.62 6.19 10.62 8.43C10.62 10.68 8.8 12.5 6.56 12.5Z" stroke="#9F9F9F" stroke-opacity="1.000000" stroke-width="1.500000" stroke-linejoin="round"/>
	<path id="Vector" d="M11.92 4.66C12.48 4.44 13.08 4.34 13.67 4.38C14.27 4.41 14.85 4.58 15.38 4.87C15.9 5.16 16.36 5.56 16.71 6.04C17.06 6.52 17.31 7.08 17.42 7.66C17.53 8.25 17.51 8.86 17.37 9.44C17.22 10.02 16.94 10.56 16.56 11.02C16.18 11.48 15.7 11.85 15.16 12.11C14.62 12.36 14.03 12.49 13.43 12.5" stroke="#9F9F9F" stroke-opacity="1.000000" stroke-width="1.500000" stroke-linejoin="round" stroke-linecap="round"/>
</svg>
