<svg width="28.000000" height="28.000000" viewBox="0 0 28 28" fill="none" xmlns="http://www.w3.org/2000/svg" xmlns:xlink="http://www.w3.org/1999/xlink">
	<desc>
			Created with Pixso.
	</desc>
	<defs/>
	<rect id="Format=Outline, Weight=Regular" rx="0.000000" width="27.000000" height="27.000000" transform="translate(0.500000 0.500000)" fill="#FFFFFF" fill-opacity="0"/>
	<path id="Vector" d="M14 2.62C11.75 2.62 9.55 3.29 7.68 4.54C5.8 5.79 4.35 7.56 3.49 9.64C2.62 11.72 2.4 14.01 2.84 16.21C3.28 18.42 4.36 20.45 5.95 22.04C7.54 23.63 9.57 24.71 11.78 25.15C13.98 25.59 16.27 25.37 18.35 24.5C20.43 23.64 22.2 22.19 23.45 20.31C24.7 18.44 25.37 16.24 25.37 14C25.37 10.98 24.17 8.09 22.03 5.96C19.9 3.82 17.01 2.62 14 2.62ZM14 23.62C12.09 23.62 10.23 23.06 8.65 22C7.06 20.94 5.83 19.44 5.1 17.68C4.37 15.92 4.18 13.98 4.55 12.12C4.93 10.25 5.84 8.54 7.19 7.19C8.54 5.84 10.25 4.93 12.12 4.55C13.98 4.18 15.92 4.37 17.68 5.1C19.44 5.83 20.94 7.06 22 8.65C23.06 10.23 23.62 12.09 23.62 14C23.62 16.55 22.6 18.99 20.8 20.8C18.99 22.6 16.55 23.62 14 23.62ZM19.25 14C19.25 14.23 19.15 14.45 18.99 14.61C18.82 14.78 18.6 14.87 18.37 14.87L14.87 14.87L14.87 18.37C14.87 18.6 14.78 18.82 14.61 18.99C14.45 19.15 14.23 19.25 14 19.25C13.76 19.25 13.54 19.15 13.38 18.99C13.21 18.82 13.12 18.6 13.12 18.37L13.12 14.87L9.62 14.87C9.39 14.87 9.17 14.78 9 14.61C8.84 14.45 8.74 14.23 8.74 14C8.74 13.76 8.84 13.54 9 13.38C9.17 13.21 9.39 13.12 9.62 13.12L13.12 13.12L13.12 9.62C13.12 9.39 13.21 9.17 13.38 9C13.54 8.84 13.76 8.75 14 8.75C14.23 8.75 14.45 8.84 14.61 9C14.78 9.17 14.87 9.39 14.87 9.62L14.87 13.12L18.37 13.12C18.6 13.12 18.82 13.21 18.99 13.38C19.15 13.54 19.25 13.76 19.25 14Z" fill="#9F9F9F" fill-opacity="1.000000" fill-rule="nonzero"/>
</svg>
