<svg width="18.000000" height="18.000000" viewBox="0 0 18 18" fill="none" xmlns="http://www.w3.org/2000/svg" xmlns:xlink="http://www.w3.org/1999/xlink">
	<desc>
			Created with Pixso.
	</desc>
	<defs/>
	<rect id="PushPin" rx="0.000000" width="17.000000" height="17.000000" transform="translate(0.500000 0.500000)" fill="#FFFFFF" fill-opacity="0"/>
	<path id="Vector" d="M16.54 7.31L12.78 11.08C13.1 11.97 13.24 13.46 11.85 15.3C11.76 15.43 11.63 15.53 11.49 15.61C11.35 15.69 11.19 15.73 11.03 15.75C11.01 15.75 10.98 15.75 10.95 15.75C10.81 15.75 10.66 15.72 10.52 15.66C10.39 15.6 10.26 15.52 10.16 15.42L6.77 12.02L3.77 15.02C3.66 15.12 3.52 15.18 3.37 15.18C3.22 15.18 3.08 15.12 2.97 15.02C2.87 14.91 2.81 14.77 2.81 14.62C2.81 14.47 2.87 14.33 2.97 14.22L5.97 11.22L2.58 7.83C2.46 7.72 2.38 7.58 2.32 7.44C2.26 7.29 2.24 7.13 2.25 6.97C2.26 6.81 2.3 6.66 2.37 6.52C2.44 6.38 2.54 6.26 2.67 6.16C4.45 4.71 6.16 5 6.91 5.23L10.68 1.45C10.79 1.35 10.91 1.26 11.05 1.21C11.18 1.15 11.33 1.12 11.48 1.12C11.63 1.12 11.77 1.15 11.91 1.21C12.05 1.26 12.17 1.35 12.27 1.45L16.54 5.72C16.75 5.93 16.87 6.21 16.87 6.51C16.87 6.81 16.75 7.1 16.54 7.31Z" fill="#FFFFFF" fill-opacity="1.000000" fill-rule="nonzero"/>
</svg>
