<svg width="28.000000" height="28.000000" viewBox="0 0 28 28" fill="none" xmlns="http://www.w3.org/2000/svg" xmlns:xlink="http://www.w3.org/1999/xlink">
	<desc>
			Created with Pixso.
	</desc>
	<defs/>
	<rect id="Format=Outline, Weight=Regular" rx="0.000000" width="27.000000" height="27.000000" transform="translate(0.500000 0.500000)" fill="#FFFFFF" fill-opacity="0"/>
	<path id="Vector" d="M25.11 23.88L19.64 18.4C21.22 16.5 22.02 14.05 21.85 11.58C21.68 9.1 20.56 6.79 18.73 5.12C16.9 3.44 14.49 2.54 12.01 2.6C9.53 2.65 7.17 3.66 5.42 5.42C3.66 7.17 2.65 9.53 2.6 12.01C2.54 14.49 3.44 16.9 5.12 18.73C6.79 20.56 9.1 21.68 11.58 21.85C14.05 22.02 16.5 21.22 18.4 19.64L23.88 25.11C23.96 25.2 24.05 25.26 24.16 25.3C24.27 25.35 24.38 25.37 24.5 25.37C24.61 25.37 24.72 25.35 24.83 25.3C24.94 25.26 25.03 25.2 25.11 25.11C25.2 25.03 25.26 24.94 25.3 24.83C25.35 24.72 25.37 24.61 25.37 24.5C25.37 24.38 25.35 24.27 25.3 24.16C25.26 24.05 25.2 23.96 25.11 23.88ZM4.37 12.25C4.37 10.69 4.83 9.16 5.7 7.87C6.56 6.57 7.79 5.57 9.23 4.97C10.67 4.37 12.25 4.22 13.78 4.52C15.31 4.83 16.71 5.58 17.81 6.68C18.91 7.78 19.66 9.18 19.97 10.71C20.27 12.24 20.12 13.82 19.52 15.26C18.92 16.7 17.92 17.93 16.62 18.79C15.33 19.66 13.8 20.12 12.25 20.12C10.16 20.12 8.16 19.29 6.68 17.81C5.2 16.33 4.37 14.33 4.37 12.25Z" fill="#9F9F9F" fill-opacity="1.000000" fill-rule="nonzero"/>
</svg>
