<svg width="20.000000" height="20.000000" viewBox="0 0 20 20" fill="none" xmlns="http://www.w3.org/2000/svg" xmlns:xlink="http://www.w3.org/1999/xlink">
	<desc>
			Created with Pixso.
	</desc>
	<defs>
		<clipPath id="clip172_1434">
			<rect id="simple-icons:ton" rx="-0.500000" width="19.000000" height="19.000000" transform="translate(0.000000 0.335938)" fill="white" fill-opacity="0"/>
		</clipPath>
	</defs>
	<rect id="simple-icons:ton" rx="-0.500000" width="19.000000" height="19.000000" transform="translate(0.000000 0.335938)" fill="#FFFFFF" fill-opacity="0"/>
	<g clip-path="url(#clip172_1434)">
		<path id="Vector" d="M9.5 -0.17C3.97 -0.17 -0.5 4.31 -0.5 9.83C-0.5 15.35 3.97 19.83 9.5 19.83C15.02 19.83 19.5 15.35 19.5 9.83C19.5 4.31 15.02 -0.17 9.5 -0.17ZM6.08 5.41L12.91 5.41C14.16 5.41 14.96 6.77 14.33 7.86L10.12 15.17C10.05 15.27 9.96 15.36 9.85 15.43C9.74 15.49 9.62 15.52 9.5 15.52C9.37 15.52 9.25 15.49 9.14 15.43C9.03 15.36 8.94 15.27 8.88 15.17L4.66 7.86C4.03 6.77 4.82 5.41 6.08 5.41ZM10.12 6.66L10.12 12.98L11.04 11.2L13.25 7.24C13.28 7.18 13.3 7.11 13.3 7.04C13.3 6.98 13.28 6.91 13.25 6.85C13.21 6.79 13.16 6.74 13.1 6.71C13.04 6.68 12.98 6.66 12.91 6.66L10.12 6.66ZM6.08 6.66C6.01 6.66 5.94 6.68 5.88 6.71C5.82 6.74 5.78 6.79 5.74 6.85C5.71 6.91 5.69 6.98 5.69 7.04C5.69 7.11 5.7 7.18 5.74 7.24L7.95 11.2L8.87 12.98L8.87 6.66L6.08 6.66Z" fill="#06A5FF" fill-opacity="1.000000" fill-rule="nonzero"/>
	</g>
</svg>
